Coordinates
version=1
nRows=16
nColumns=22
inDegrees=yes

Units are S.I. units (second, meters, Newtons, ...)
If the header above contains a line with 'inDegrees', this indicates whether rotational values are in degrees (yes) or radians (no).

endheader
time	pelvis_tilt	pelvis_list	pelvis_rotation	pelvis_tx	pelvis_ty	pelvis_tz	hip_flexion_r	hip_adduction_r	hip_rotation_r	knee_angle_r	ankle_angle_r	subtalar_angle_r	hip_flexion_l	hip_adduction_l	hip_rotation_l	knee_angle_l	ankle_angle_l	subtalar_angle_l	lumbar_extension	lumbar_bending	lumbar_rotation
      4.35000000	      0.85193489	     -6.15305769	     14.59626384	      1.04903586	      0.94631478	     -0.32035518	     24.32822122	      2.79074745	     -9.67231807	    -24.98844135	     -1.14183428	      3.36892560	     -8.86617752	     -8.27755845	     16.06548131	    -31.15381111	     10.83438013	     16.98895385	     -0.84346724	      4.64183590	    -10.99471199
      4.36000000	      0.78616441	     -6.27117154	     14.73520831	      1.05696915	      0.94713532	     -0.31929913	     23.98713530	      3.03218890	     -9.89280728	    -25.08582592	     -0.65305722	      3.19233903	     -7.76664607	     -8.33899274	     16.04369550	    -33.30634494	     10.24558240	     17.62848336	     -0.72378102	      4.79643652	    -11.05976613
      4.37000000	      0.73565732	     -6.42645147	     14.88309822	      1.06469217	      0.94792217	     -0.31822338	     23.60957861	      3.31565218	    -10.13277503	    -25.10798772	     -0.17363552	      3.03868113	     -6.57742837	     -8.44360400	     15.99049133	    -35.53944548	      9.73779583	     18.09461409	     -0.62710795	      4.99216232	    -11.12182215
      4.38000000	      0.74212879	     -6.64623764	     15.03510513	      1.07224446	      0.94871494	     -0.31709271	     23.15204395	      3.68906969	    -10.38719281	    -25.03578188	      0.26846598	      2.93443361	     -5.36774000	     -8.64392202	     15.89083342	    -37.78197678	      9.31028175	     18.23934891	     -0.58812998	      5.26582233	    -11.17371743
      4.39000000	      0.72003733	     -6.87868868	     15.16060680	      1.07956497	      0.94942191	     -0.31590088	     22.73122728	      4.08125766	    -10.60840711	    -24.93852084	      0.69822336	      2.80744992	     -4.07839790	     -8.85904153	     15.75462260	    -39.98802084	      8.93437398	     18.29215910	     -0.53397965	      5.53981054	    -11.17143726
      4.40000000	      0.65220050	     -7.09932116	     15.26721190	      1.08664723	      0.95004815	     -0.31466177	     22.35278640	      4.45715537	    -10.82300848	    -24.80518323	      1.09436572	      2.62077790	     -2.71557804	     -9.07204849	     15.56798444	    -42.09460234	      8.62861728	     18.13910690	     -0.44914828	      5.77910421	    -11.15033579
      4.41000000	      0.61512872	     -7.35625398	     15.35478380	      1.09354929	      0.95069171	     -0.31336933	     21.93429204	      4.89691987	    -11.00710407	    -24.60790270	      1.44604033	      2.45506761	     -1.38995623	     -9.35912633	     15.33580729	    -44.02659802	      8.41753327	     17.60763225	     -0.39925206	      6.06051095	    -11.08551288
      4.42000000	      0.57364171	     -7.61045980	     15.41644559	      1.10024337	      0.95133105	     -0.31204780	     21.51377742	      5.34827655	    -11.15033643	    -24.36932489	      1.75939339	      2.29643707	     -0.08452250	     -9.66459320	     15.06665502	    -45.75492160	      8.30373492	     16.73997381	     -0.35836107	      6.33355837	    -10.98071651
      4.43000000	      0.53083887	     -7.85284030	     15.44391757	      1.10674357	      0.95197538	     -0.31069689	     21.08748766	      5.80529281	    -11.23926500	    -24.09664273	      2.03604088	      2.14085980	      1.17991689	     -9.97584253	     14.76309712	    -47.25545066	      8.30937181	     15.59593413	     -0.33158500	      6.59040049	    -10.83171528
      4.44000000	      0.48260489	     -8.07139513	     15.44577640	      1.11306780	      0.95263855	     -0.30936181	     20.65299208	      6.24676441	    -11.28392529	    -23.79007070	      2.28198145	      1.98762125	      2.39185426	    -10.26664368	     14.45639117	    -48.50643307	      8.43216952	     14.26784912	     -0.31257459	      6.81734597	    -10.63803564
      4.45000000	      0.44035882	     -8.25585844	     15.40787752	      1.11923328	      0.95331583	     -0.30804285	     20.20873772	      6.66409961	    -11.28041144	    -23.47926115	      2.50653899	      1.83258988	      3.52518719	    -10.52224404	     14.13648361	    -49.50502220	      8.68485551	     12.77859344	     -0.31676032	      7.01153502	    -10.39704956
      4.46000000	      0.38782746	     -8.41869936	     15.36901059	      1.12522993	      0.95400195	     -0.30679226	     19.75699538	      7.05357210	    -11.25821137	    -23.13068786	      2.70248683	      1.69355182	      4.61072809	    -10.73086199	     13.87789603	    -50.25829286	      9.02457568	     11.28566843	     -0.31719627	      7.18009028	    -10.15412028
      4.47000000	      0.33853622	     -8.54904217	     15.31852058	      1.13106338	      0.95470983	     -0.30561227	     19.28797120	      7.41066918	    -11.19710876	    -22.76016017	      2.87046887	      1.57152676	      5.62185085	    -10.88102292	     13.66432713	    -50.76389976	      9.45409747	      9.84881825	     -0.33269307	      7.31822717	     -9.91018940
      4.48000000	      0.29043794	     -8.64065229	     15.25452211	      1.13676071	      0.95543614	     -0.30452011	     18.80517835	      7.72002921	    -11.13592463	    -22.38031192	      3.03684001	      1.46439227	      6.54469772	    -10.95875391	     13.50239670	    -51.01356360	      9.96622993	      8.54817749	     -0.36083364	      7.41929971	     -9.63316806
      4.49000000	      0.23656881	     -8.69868120	     15.18904086	      1.14231313	      0.95616785	     -0.30351842	     18.31920934	      7.98244497	    -11.07979452	    -21.99155942	      3.19580048	      1.37193344	      7.39453374	    -10.97206953	     13.38956071	    -51.01849028	     10.53812427	      7.45567357	     -0.38952823	      7.48689030	     -9.36355192
      4.50000000	      0.17270087	     -8.73309376	     15.12534513	      1.14769422	      0.95689420	     -0.30259634	     17.83303121	      8.21337854	    -10.99510849	    -21.58116783	      3.32964109	      1.29694013	      8.18990624	    -10.92715158	     13.33553433	    -50.80445892	     11.12777512	      6.64597531	     -0.41631734	      7.53022817	     -9.10999357
